<svg id="Layer_1" viewBox="0 0 24 24" xmlns="http://www.w3.org/2000/svg" data-name="Layer 1" width="40" height="40"><g opacity=".5"><path d="m17.273 10-1.273-9c0 2.949-2.583 4-5 4h-7c-2.206 0-4 1.794-4 4v2c0 1.262.599 2.376 1.515 3.109l2.879 2.454 4.166-1.564h2.441c2.417 0 5 1.051 5 4l1.274-9z" fill="red"/></g><path d="m17 20c-.553 0-1-.448-1-1v-18c0-.552.447-1 1-1s1 .448 1 1v18c0 .552-.447 1-1 1z" fill="#222"/><path d="m1.515 14.109 3.571 7.972c.519 1.166 1.678 1.919 2.953 1.919 1.014 0 1.948-.507 2.5-1.356.553-.85.637-1.91.221-2.848l-2.2-4.796h-4.56c-.944 0-1.801-.342-2.485-.891z" fill="#222"/><path d="m22.999 16c-.15 0-.303-.034-.446-.105l-2-1c-.494-.247-.694-.848-.447-1.342.248-.494.848-.694 1.342-.447l2 1c.494.247.694.848.447 1.342-.176.351-.528.553-.896.553z" fill="#222"/><path d="m21.001 7c-.367 0-.72-.202-.896-.553-.247-.494-.047-1.095.447-1.342l2-1c.494-.248 1.094-.047 1.342.447.247.494.047 1.095-.447 1.342l-2 1c-.144.072-.296.105-.446.105z" fill="#222"/><path d="m23 11h-2c-.553 0-1-.448-1-1s.447-1 1-1h2c.553 0 1 .448 1 1s-.447 1-1 1z" fill="#222"/></svg>