<svg id="Layer_1" width="32" height="32" viewBox="0 0 24 24" xmlns="http://www.w3.org/2000/svg" data-name="Layer 1"><path d="m20.866 18.181c.066.339.065.593.057.725-.011 1.109-.364 1.982-1.105 2.635-1.338 1.037-3.603 1.46-7.817 1.46-2.63 0-6.027-.35-8.166-1.112 1.005-.251 2.063-1.011 2.063-3.102 0-.456-.054-.923-.11-1.303 2.144.242 4.863.517 7.661.517 2.137.004 4.307-.273 6.246-.612.538-.103 1.067.251 1.172.793zm.241-3.45.809-.882c.695-.758 1.08-1.736 1.084-2.758l-.013-7.591c-.052-1.449-1.154-2.5-2.49-2.5-1.372 0-2.492 1.118-2.497 2.488l.011 7.611c-.004 1.019.375 1.997 1.067 2.754l.803.877c.312.357.913.356 1.226 0zm-3.451.951c-.373.051-.733.093-1.085.129 0 .004 0 .008-.001.012-.991.108-2.001.178-2.995.178-3.358-.002-6.357-.367-8.887-.655-.643-.092-1.234.539-1.096 1.177.124.734.294 1.447.306 2.265 0 .855-.327 1.214-1.02 1.214-.686 0-1.063-.162-1.326-1.049-.26-1.674-.552-4.451-.552-6.951 0-5.066.988-9.076 1.03-9.244.088-.354.362-.632.716-.725.16-.043 3.976-1.033 7.754-1.033 1.318 0 4.064.226 5.974.534-.291.594-.471 1.252-.474 1.957l.011 7.601c-.006 1.523.56 2.983 1.592 4.112l.018.02c.012.153.022.312.035.458zm-7.514-6.818c-.424-.355-1.055-.299-1.409.125-.526.627-1.107 1.208-1.733 1.735-.276-.232-.544-.475-.8-.726-.395-.386-1.027-.38-1.414.014-.387.395-.38 1.028.014 1.414.501.491 1.04.954 1.601 1.375.356.266.844.266 1.2 0 .981-.736 1.878-1.586 2.667-2.527.354-.423.299-1.054-.125-1.409zm0-5c-.424-.354-1.055-.3-1.409.125-.526.627-1.107 1.208-1.733 1.735-.276-.232-.544-.475-.8-.726-.395-.387-1.027-.379-1.414.014-.387.395-.38 1.028.014 1.414.501.491 1.04.954 1.601 1.375.356.266.844.266 1.2 0 .981-.736 1.878-1.586 2.667-2.527.354-.423.299-1.054-.125-1.409z" fill="#800000" /></svg>